<svg id="Icons" height="512" viewBox="0 0 74 74" width="512" xmlns="http://www.w3.org/2000/svg"><path d="m47.594 29.576h-38.42a1 1 0 0 1 -1-1v-5.276a1 1 0 0 1 1-1h38.42a1 1 0 0 1 1 1v5.273a1 1 0 0 1 -1 1.003zm-37.42-2h36.42v-3.276h-36.42z"/><path d="m9.174 24.3a1 1 0 0 1 -.721-1.694l5.21-5.409a1 1 0 0 1 .721-.306h28a1 1 0 0 1 .72.306l5.211 5.409a1 1 0 1 1 -1.441 1.394l-4.916-5.1h-27.149l-4.914 5.1a1 1 0 0 1 -.721.3z"/><path d="m34.057 18.894h-11.346a1 1 0 0 1 -1-1v-4.339a1 1 0 0 1 1-1h11.346a1 1 0 0 1 1 1v4.339a1 1 0 0 1 -1 1zm-10.346-2h9.346v-2.339h-9.346z"/><path d="m64.826 72h-6.026a1 1 0 0 1 -1-1v-60.89a.084.084 0 0 0 -.083-.083h-25.238a.083.083 0 0 0 -.082.083v3.445a1 1 0 0 1 -1 1h-6.027a1 1 0 0 1 -1-1v-3.445a8.119 8.119 0 0 1 8.109-8.11h25.238a8.119 8.119 0 0 1 8.109 8.11v60.89a1 1 0 0 1 -1 1zm-5.026-2h4.026v-59.89a6.116 6.116 0 0 0 -6.109-6.11h-25.238a6.116 6.116 0 0 0 -6.109 6.11v2.445h4.03v-2.445a2.085 2.085 0 0 1 2.082-2.083h25.235a2.086 2.086 0 0 1 2.083 2.083z"/><path d="m40.521 41.1a3.4 3.4 0 0 1 -3.4-3.4c0-1.539 1.985-4.371 2.595-5.2a1 1 0 0 1 .806-.409 1 1 0 0 1 .806.407c.611.832 2.608 3.666 2.608 5.205a3.411 3.411 0 0 1 -3.415 3.397zm0-6.248a8.9 8.9 0 0 0 -1.4 2.846 1.408 1.408 0 0 0 2.815 0 9.065 9.065 0 0 0 -1.413-2.844z"/><path d="m28.377 41.1a3.4 3.4 0 0 1 -3.4-3.4c0-1.539 1.985-4.371 2.595-5.2a1 1 0 0 1 .806-.409 1 1 0 0 1 .806.407c.612.832 2.609 3.666 2.609 5.205a3.412 3.412 0 0 1 -3.416 3.397zm0-6.249a8.907 8.907 0 0 0 -1.4 2.848 1.408 1.408 0 0 0 2.816 0 8.873 8.873 0 0 0 -1.414-2.846z"/><path d="m16.233 41.1a3.406 3.406 0 0 1 -3.4-3.4c0-1.539 1.986-4.372 2.6-5.2a1 1 0 0 1 .806-.409 1 1 0 0 1 .806.407c.611.832 2.608 3.666 2.608 5.205a3.411 3.411 0 0 1 -3.42 3.397zm0-6.248a8.9 8.9 0 0 0 -1.4 2.846 1.408 1.408 0 0 0 2.816 0 9.052 9.052 0 0 0 -1.415-2.844z"/><path d="m35.231 52.026a3.4 3.4 0 0 1 -3.4-3.4c0-1.539 1.985-4.372 2.595-5.2a1 1 0 0 1 .806-.409 1 1 0 0 1 .806.407c.611.832 2.608 3.665 2.608 5.205a3.411 3.411 0 0 1 -3.415 3.397zm0-6.249a8.9 8.9 0 0 0 -1.4 2.847 1.408 1.408 0 0 0 2.815 0 8.88 8.88 0 0 0 -1.413-2.847z"/><path d="m23.087 52.026a3.4 3.4 0 0 1 -3.4-3.4c0-1.539 1.985-4.372 2.595-5.2a1 1 0 0 1 .806-.409 1 1 0 0 1 .806.407c.612.832 2.609 3.665 2.609 5.205a3.412 3.412 0 0 1 -3.416 3.397zm0-6.248a8.894 8.894 0 0 0 -1.4 2.846 1.408 1.408 0 0 0 2.816 0 9.047 9.047 0 0 0 -1.414-2.846z"/></svg>